# xmcd
#
# Track frame offsets: 
#        150
#        15831
#        30407
#        42397
#        58660
#        68566
#        84896
#        108633
#        118694
#        134023
#        151633
#        165181
#
# Disc length: 2407 seconds
#
# Revision: 0
# Processed by: cddbd v1.5.2PL0 Copyright (c) Steve Scherf et al.
# Submitted via: ExactAudioCopy v0.99pb3
#
DISCID=8609650c
DTITLE=Paul Orta and Tonky De La Pena - Pawn Shop Blues
DYEAR=2008
DGENRE=Blues
TTITLE0=Pawn Shop Blues
TTITLE1=Catfish Blues
TTITLE2=Talk To Your Daughter
TTITLE3=Pomme Otro Whiskey
TTITLE4=Boogie The Woogie
TTITLE5=Bright Lights, Big City
TTITLE6=Voodoo Mam
TTITLE7=Bring It On Home
TTITLE8=Feel So Bad
TTITLE9=Oh, Susanne
TTITLE10=Vaga Bundo
TTITLE11=Tribute To Sonny Terry
EXTD=
EXTT0=
EXTT1=
EXTT2=
EXTT3=
EXTT4=
EXTT5=
EXTT6=
EXTT7=
EXTT8=
EXTT9=
EXTT10=
EXTT11=
PLAYORDER=
